<svg width="16" height="16" viewBox="0 0 16 16" fill="none" xmlns="http://www.w3.org/2000/svg">
<path d="M7.99963 0C11.6446 0 14.599 2.95471 14.5992 6.59961C14.5992 7.38351 14.3238 8.23308 13.9323 9.05664C13.5363 9.8894 12.9976 10.7461 12.4196 11.5576C11.2632 13.1811 9.91224 14.675 9.1178 15.5127C8.50628 16.1575 7.49299 16.1575 6.88147 15.5127C6.08698 14.6749 4.73585 13.1808 3.57971 11.5576C3.0018 10.7462 2.46293 9.88927 2.06702 9.05664C1.67552 8.23318 1.40002 7.38341 1.40002 6.59961C1.40024 2.95484 4.35486 0.000211069 7.99963 0ZM7.99963 1.19922C5.01761 1.19943 2.59945 3.61758 2.59924 6.59961C2.59924 7.1244 2.79158 7.78496 3.151 8.54102C3.50625 9.28811 4.00263 10.0826 4.55725 10.8613C5.66636 12.4185 6.97434 13.8659 7.75256 14.6865C7.89085 14.8323 8.10841 14.8323 8.2467 14.6865C9.02488 13.866 10.3327 12.4187 11.442 10.8613C11.9967 10.0825 12.493 9.28823 12.8483 8.54102C13.2078 7.78483 13.4 7.12447 13.4 6.59961C13.3998 3.61745 10.9818 1.19922 7.99963 1.19922ZM7.99963 3C9.71159 3 11.099 4.38771 11.0992 6.09961C11.0992 7.81169 9.71172 9.19922 7.99963 9.19922C6.28773 9.19901 4.90002 7.81156 4.90002 6.09961C4.90024 4.38784 6.28786 3.00021 7.99963 3ZM7.99963 4.19922C6.9506 4.19943 6.09945 5.05058 6.09924 6.09961C6.09924 7.14882 6.95047 7.99979 7.99963 8C9.04897 8 9.90002 7.14895 9.90002 6.09961C9.89981 5.05045 9.04884 4.19922 7.99963 4.19922Z" fill="white"/>
<circle cx="8" cy="6.10001" r="2.5" stroke="white" stroke-width="1.2"/>
</svg>
