<svg width="41" height="41" viewBox="0 0 41 41" fill="none" xmlns="http://www.w3.org/2000/svg">
<path d="M20.4995 0.9375C29.3221 0.9375 36.4739 8.08952 36.4741 16.9121C36.4741 18.9041 35.6933 21.1702 34.5347 23.4541C33.37 25.75 31.7926 28.1231 30.1323 30.3447C26.8111 34.7887 23.1186 38.6797 21.6167 40.2139C21.0003 40.8432 19.9987 40.8432 19.3823 40.2139C17.8802 38.6795 14.1876 34.7884 10.8667 30.3447C9.20651 28.1232 7.62897 25.7498 6.46436 23.4541C5.30583 21.1703 4.5249 18.904 4.5249 16.9121C4.52509 8.08965 11.6771 0.937711 20.4995 0.9375ZM20.4995 2.13672C12.3398 2.13693 5.72431 8.75239 5.72412 16.9121C5.72412 18.6232 6.40584 20.6877 7.53369 22.9111C8.65559 25.1227 10.1902 27.4348 11.8276 29.626C15.1022 34.0075 18.7527 37.855 20.2397 39.374C20.3856 39.523 20.6134 39.523 20.7593 39.374C22.2461 37.8552 25.8966 34.0079 29.1714 29.626C30.809 27.4347 32.3434 25.1228 33.4653 22.9111C34.5933 20.6876 35.2749 18.6233 35.2749 16.9121C35.2747 8.75226 28.6594 2.13672 20.4995 2.13672ZM20.4995 8.625C24.3688 8.625 27.5052 11.7616 27.5054 15.6309C27.5054 19.5003 24.369 22.6367 20.4995 22.6367C16.6302 22.6365 13.4937 19.5002 13.4937 15.6309C13.4938 11.7617 16.6304 8.62521 20.4995 8.625ZM20.4995 9.82422C17.2931 9.82443 14.6931 12.4244 14.6929 15.6309C14.6929 18.8374 17.293 21.4373 20.4995 21.4375C23.7062 21.4375 26.3062 18.8376 26.3062 15.6309C26.306 12.4243 23.7061 9.82422 20.4995 9.82422Z" fill="black"/>
<circle cx="20.5" cy="15.6312" r="6.40625" stroke="black" stroke-width="1.2"/>
</svg>
