<svg width="329" height="71" viewBox="0 0 329 71" fill="none" xmlns="http://www.w3.org/2000/svg">
<g clip-path="url(#clip0_13_40)">
<path d="M39.9734 31.713L51.7529 20.2418C52.1042 19.8997 52.319 19.4416 52.3253 18.9513C52.3394 17.8519 52.2685 15.8067 51.6304 14.5075C50.9862 13.1958 49.3874 11.8779 48.4152 11.1591C47.9813 10.8383 47.3797 10.9568 47.0647 11.3948C46.1872 12.6151 44.4325 14.973 42.9481 16.4587C41.0253 18.3832 37.7258 20.6761 36.6329 21.4177C36.4006 21.5753 36.1162 21.6232 35.8435 21.5565C34.8142 21.3047 32.1385 20.6662 30.2586 20.361C26.2514 19.7107 23.58 21.6618 23.58 21.6618C23.58 21.6618 17.5692 24.9138 16.9013 30.7673C16.5999 33.4091 17.716 36.3013 18.5972 38.1015C18.9614 38.8454 20.0302 38.7695 20.427 38.0424C21.3456 36.3593 23.0279 33.9447 25.5836 32.7185C29.6216 30.781 37.1174 31.7001 39.1111 31.991C39.4275 32.0371 39.7443 31.9361 39.9734 31.713Z" fill="#62A7C0"/>
<path d="M16.9013 30.7673C16.5999 33.4092 17.716 36.3013 18.5972 38.1015C18.9614 38.8454 20.0302 38.7695 20.427 38.0425C21.3456 36.3593 23.0279 33.9447 25.5836 32.7185C30.2687 30.4705 39.6088 32.0681 39.6088 32.0681L38.1465 20.3611C37.5059 20.8202 36.9684 21.19 36.635 21.4162C36.4027 21.5739 36.1162 21.6232 35.8435 21.5565C34.8142 21.3047 32.1385 20.6662 30.2586 20.3611C26.2514 19.7107 23.58 21.6618 23.58 21.6618C23.58 21.6618 17.5692 24.9138 16.9013 30.7673Z" fill="#426F7F"/>
<path d="M16.9013 30.7673C16.5999 33.4092 17.716 36.3013 18.5972 38.1015C18.9614 38.8455 20.0306 38.7687 20.4275 38.0416C20.8467 37.2736 21.4248 36.3534 22.1724 35.4633L20.8421 23.6879C19.1599 25.2301 17.26 27.6235 16.9013 30.7673Z" fill="#335562"/>
<path d="M10.6558 53.64C-1.12941 43.1643 0.834794 28.76 0.834794 28.76C0.834794 28.76 3.45374 11.4086 19.1674 6.17073C29.8197 2.62001 40.5198 6.38749 44.1018 7.89662C44.7289 8.16084 44.862 8.95807 44.3808 9.43927L37.2581 16.562C37.003 16.8171 36.6358 16.9169 36.2849 16.8335C34.1214 16.3194 26.1831 14.7259 21.1316 17.6295C12.6201 22.5221 12.6201 31.379 12.6201 31.379C12.6201 31.379 11.8692 39.2359 19.1674 45.1285C25.3364 50.1093 33.707 48.541 36.1496 47.9365C36.5681 47.8329 37.0157 47.9833 37.2681 48.3328L43.9361 57.5654C44.4587 58.2891 43.8325 59.3614 42.9405 59.3263C41.5799 59.2727 39.7098 59.2871 37.5 59.5327C25.7148 60.8422 17.6218 59.832 10.6558 53.64Z" fill="#62A7C0"/>
<path d="M37.5 59.5327C25.7148 60.8422 17.6218 59.832 10.6558 53.6401L13.3034 36.5578C14.0935 39.1718 15.746 42.366 19.1674 45.1285C25.3364 50.1094 33.707 48.5411 36.1496 47.9365C36.5681 47.8329 37.0157 47.9834 37.2681 48.3328L43.9361 57.5654C44.4587 58.2891 43.8325 59.3614 42.9405 59.3263C41.5799 59.2727 39.7098 59.2872 37.5 59.5327Z" fill="#518CA2"/>
<path d="M42.9405 59.3263C41.5799 59.2727 39.7098 59.2872 37.5 59.5327C29.4685 60.4251 23.1518 60.2402 17.7379 58.0721L16.4076 42.3906C17.1677 43.3252 18.0778 44.2487 19.1674 45.1285C25.3364 50.1094 33.707 48.5411 36.1497 47.9365C36.5681 47.8329 37.0157 47.9834 37.2681 48.3328L43.9361 57.5654C44.4587 58.2891 43.8325 59.3614 42.9405 59.3263Z" fill="#426F7F"/>
<path d="M42.9405 59.3263C41.5799 59.2727 39.7098 59.2872 37.5 59.5327C33.6531 59.9601 30.1996 60.1404 27.0503 59.974L24.0609 47.7474C29.1399 49.3884 34.3186 48.3898 36.1514 47.936C36.5698 47.8324 37.0157 47.9834 37.2681 48.3328L43.9361 57.5654C44.4587 58.2891 43.8325 59.3614 42.9405 59.3263Z" fill="#335562"/>
<path d="M43.7552 39.8404L39.522 45.207C39.2309 45.5761 39.2361 46.098 39.5345 46.4612L45.1086 53.2451C45.4734 53.6891 46.1366 53.735 46.5591 53.3454L51.6311 48.669C52.4857 47.8811 52.4908 46.533 51.6423 45.7386L45.2238 39.7297C44.7963 39.3295 44.1179 39.3806 43.7552 39.8404Z" fill="#62A7C0"/>
<path d="M45.0358 52.6947L43.7495 40.7963C43.6496 39.8721 44.7545 39.3236 45.4303 39.9618L51.44 45.6376L51.6459 45.8435C52.4734 46.671 52.3762 48.0396 51.44 48.7417L47.4489 52.7327L46.6547 53.3681C46.0384 53.8611 45.1206 53.4794 45.0358 52.6947Z" fill="#518CA2"/>
<path d="M76.3945 33.6934C77.25 33.6934 77.918 33.6055 78.3985 33.4297C78.8906 33.2539 79.2715 33.0371 79.541 32.7793C79.8106 32.5215 80.0449 32.2637 80.2442 32.0059C80.4317 31.7715 80.584 31.5957 80.7012 31.4785C80.8301 31.3613 81.0059 31.2793 81.2285 31.2324C81.416 31.1738 81.7149 31.1387 82.125 31.127C82.5469 31.1035 82.9629 31.0918 83.3731 31.0918C83.7949 31.0918 84.0879 31.1035 84.252 31.127C84.4981 31.1387 84.668 31.1855 84.7617 31.2676C84.8555 31.3496 84.9141 31.5254 84.9375 31.7949C84.9727 32.1699 84.9902 32.6152 84.9902 33.1309C85.002 33.6465 84.9961 34.0918 84.9727 34.4668C84.961 34.584 84.9375 34.6836 84.9024 34.7656C84.8789 34.8477 84.8203 34.9707 84.7266 35.1348C84.6094 35.3223 84.3809 35.5977 84.041 35.9609C83.7012 36.3125 83.2031 36.6816 82.5469 37.0684C81.8906 37.4434 81.041 37.7656 79.9981 38.0352C78.9668 38.3047 77.6953 38.4395 76.1836 38.4395C74.5664 38.4395 73.0547 38.2344 71.6485 37.8242C70.2422 37.4023 69.0059 36.6992 67.9395 35.7148C66.8848 34.7305 66.0586 33.4004 65.461 31.7246C64.875 30.0488 64.582 27.957 64.582 25.4492C64.582 22.6602 65.0625 20.293 66.0235 18.3477C66.9961 16.3906 68.3731 14.9023 70.1543 13.8828C71.9356 12.8633 74.0449 12.3535 76.4824 12.3535C78.1934 12.3535 79.5645 12.5293 80.5957 12.8809C81.6387 13.2324 82.4297 13.6484 82.9688 14.1289C83.5078 14.5977 83.8887 15.0078 84.1113 15.3594C84.1934 15.4883 84.252 15.6055 84.2871 15.7109C84.3223 15.8047 84.3457 15.957 84.3574 16.168C84.3926 16.4492 84.3985 16.8594 84.375 17.3984C84.3633 17.9375 84.3223 18.4121 84.252 18.8223C84.2051 19.0801 84.1289 19.25 84.0235 19.332C83.9766 19.3789 83.8945 19.4199 83.7774 19.4551C83.6602 19.4902 83.4844 19.5078 83.25 19.5078C82.875 19.5078 82.4531 19.4961 81.9844 19.4727C81.5156 19.4375 81.1641 19.4023 80.9297 19.3672C80.6485 19.3203 80.4434 19.2559 80.3145 19.1738C80.1856 19.0801 80.0567 18.9395 79.9277 18.752C79.7168 18.4473 79.3535 18.0957 78.8379 17.6973C78.3223 17.2988 77.4727 17.0996 76.2891 17.0996C74.625 17.0996 73.2539 17.7441 72.1758 19.0332C71.0977 20.3105 70.5586 22.3848 70.5586 25.2559C70.5586 28.1152 71.1211 30.2363 72.2461 31.6191C73.3828 33.002 74.7656 33.6934 76.3945 33.6934ZM94.7102 23.3398H94.7806C95.6595 20.9023 97.2415 19.6836 99.5267 19.6836C99.8196 19.6836 100.06 19.7012 100.247 19.7363C100.435 19.7598 100.564 19.7832 100.634 19.8066C100.81 19.8652 100.898 20 100.898 20.2109V24.4473C100.898 24.8105 100.687 24.9102 100.265 24.7461C100.124 24.6875 99.9192 24.6289 99.6497 24.5703C99.3919 24.5 99.0286 24.4648 98.5599 24.4648C97.3528 24.4648 96.4095 24.9102 95.7298 25.8008C95.0501 26.6797 94.7102 27.8809 94.7102 29.4043V37.0684C94.7102 37.4199 94.6341 37.666 94.4817 37.8066C94.3411 37.9355 94.095 38 93.7435 38H90.1224C89.7708 38 89.5188 37.9355 89.3665 37.8066C89.2259 37.666 89.1556 37.4199 89.1556 37.0684V22.3379C89.1556 22.0566 89.2142 21.8398 89.3313 21.6875C89.5774 21.3594 89.8704 21.0254 90.2102 20.6855C90.5618 20.3457 90.9895 19.9824 91.4935 19.5957C91.5872 19.5254 91.681 19.4785 91.7747 19.4551C91.8685 19.4316 91.9505 19.4199 92.0208 19.4199C92.1849 19.4199 92.3489 19.4785 92.513 19.5957C93.4856 20.3574 94.1653 21.0078 94.552 21.5469C94.6575 21.6875 94.7102 21.8516 94.7102 22.0391V23.3398ZM113.079 38.4395C111.098 38.4395 109.376 38.123 107.911 37.4902C106.446 36.8457 105.309 35.8496 104.501 34.502C103.692 33.1543 103.288 31.4141 103.288 29.2812C103.288 26.082 104.108 23.6621 105.749 22.0215C107.389 20.3809 109.569 19.5605 112.288 19.5605C114.057 19.5605 115.551 19.877 116.77 20.5098C118.001 21.1426 118.932 22.0156 119.565 23.1289C120.21 24.2422 120.532 25.5137 120.532 26.9434C120.532 28.3379 120.174 29.3105 119.46 29.8613C118.745 30.4121 117.702 30.6875 116.331 30.6875H108.79C108.883 31.8945 109.323 32.8145 110.108 33.4473C110.905 34.0801 111.983 34.3965 113.342 34.3965C114.42 34.3965 115.282 34.2383 115.926 33.9219C116.583 33.5938 117.04 33.3359 117.297 33.1484C117.52 32.9844 117.772 32.9082 118.053 32.9199C118.276 32.9199 118.592 32.9668 119.003 33.0605C119.424 33.1426 119.84 33.3008 120.251 33.5352C120.544 33.6875 120.69 33.8984 120.69 34.168C120.69 34.3203 120.661 34.5371 120.602 34.8184C120.567 34.9824 120.508 35.2227 120.426 35.5391C120.344 35.8438 120.239 36.1309 120.11 36.4004C120.04 36.5293 119.928 36.6523 119.776 36.7695C119.542 36.9336 119.161 37.1504 118.633 37.4199C118.118 37.6895 117.409 37.9238 116.506 38.123C115.604 38.334 114.461 38.4395 113.079 38.4395ZM108.754 27.084H114.485C115.083 27.084 115.381 26.8086 115.381 26.2578C115.381 25.4258 115.118 24.7285 114.59 24.166C114.075 23.5918 113.295 23.3047 112.253 23.3047C111.116 23.3047 110.278 23.668 109.739 24.3945C109.211 25.1211 108.883 26.0176 108.754 27.084ZM129.777 38.4395C128.055 38.4395 126.683 37.959 125.664 36.998C124.656 36.0254 124.152 34.6895 124.152 32.9902C124.152 32.1113 124.31 31.2969 124.627 30.5469C124.955 29.7852 125.517 29.1172 126.314 28.543C127.123 27.957 128.248 27.4883 129.689 27.1367C131.142 26.7852 132.994 26.5801 135.244 26.5215C135.244 25.4551 134.974 24.6875 134.435 24.2188C133.908 23.75 133.111 23.5156 132.045 23.5156C131.084 23.5156 130.299 23.6797 129.689 24.0078C129.08 24.3359 128.699 24.5586 128.547 24.6758C128.383 24.8164 128.183 24.8691 127.949 24.834C127.633 24.7871 127.293 24.7051 126.93 24.5879C126.578 24.4707 126.197 24.3359 125.787 24.1836C125.728 24.1602 125.664 24.125 125.594 24.0781C125.523 24.0195 125.482 23.9375 125.471 23.832C125.471 23.7734 125.476 23.7031 125.488 23.6211C125.5 23.5273 125.529 23.3633 125.576 23.1289C125.623 22.8945 125.693 22.6074 125.787 22.2676C125.881 21.916 125.969 21.6465 126.051 21.459C126.156 21.2598 126.332 21.0723 126.578 20.8965C126.777 20.7324 127.381 20.4688 128.389 20.1055C129.396 19.7422 130.855 19.5605 132.765 19.5605C138.027 19.5605 140.658 22.1211 140.658 27.2422V37.1914C140.658 37.4141 140.594 37.6074 140.465 37.7715C140.348 37.9238 140.142 38 139.849 38H137.213C137.025 38 136.855 37.9766 136.703 37.9297C136.562 37.8711 136.428 37.7656 136.299 37.6133L135.209 36.207H135.086C134.547 36.9922 133.82 37.5605 132.906 37.9121C132.004 38.2637 130.961 38.4395 129.777 38.4395ZM131.711 34.3613C132.789 34.3613 133.603 34.0859 134.154 33.5352C134.705 32.9844 135.056 32.416 135.209 31.8301V29.8789C133.58 29.8789 132.355 30.0078 131.535 30.2656C130.726 30.5117 130.187 30.8398 129.918 31.25C129.648 31.6484 129.514 32.082 129.514 32.5508C129.514 33.2305 129.724 33.7051 130.146 33.9746C130.568 34.2324 131.09 34.3613 131.711 34.3613ZM152.892 38.4395C148.978 38.4395 147.021 36.4062 147.021 32.3398V24.0957H145.034C144.683 24.0957 144.437 24.0254 144.296 23.8848C144.167 23.7324 144.103 23.4805 144.103 23.1289V20.9668C144.103 20.6152 144.167 20.3691 144.296 20.2285C144.437 20.0762 144.683 20 145.034 20H147.021V17.1699C147.021 16.8887 147.079 16.6719 147.196 16.5195C147.689 15.875 148.409 15.1777 149.359 14.4277C149.523 14.3105 149.669 14.252 149.798 14.252C149.939 14.252 150.079 14.3105 150.22 14.4277C150.724 14.8145 151.146 15.1777 151.485 15.5176C151.837 15.8574 152.136 16.1914 152.382 16.5195C152.499 16.6719 152.558 16.8887 152.558 17.1699V20H155.669C156.021 20 156.261 20.0762 156.39 20.2285C156.53 20.3691 156.601 20.6152 156.601 20.9668V23.1289C156.601 23.4805 156.53 23.7324 156.39 23.8848C156.261 24.0254 156.021 24.0957 155.669 24.0957H152.558V31.373C152.558 33.248 153.237 34.1855 154.597 34.1855C154.808 34.1855 155.001 34.168 155.177 34.1328C155.353 34.0859 155.505 34.0391 155.634 33.9922C155.88 33.8984 156.05 33.8633 156.144 33.8867C156.249 33.9102 156.343 34.0391 156.425 34.2734L157.444 36.998C157.55 37.291 157.48 37.502 157.234 37.6309C157.058 37.7129 156.63 37.8652 155.95 38.0879C155.282 38.3223 154.263 38.4395 152.892 38.4395ZM160.309 14.0938C160.309 13.9414 160.356 13.8066 160.45 13.6895C160.543 13.5723 160.666 13.4199 160.819 13.2324C161.147 12.8574 161.528 12.4648 161.961 12.0547C162.395 11.6328 162.834 11.2285 163.28 10.8418C163.561 10.6191 163.772 10.5078 163.913 10.5078C164.053 10.5078 164.27 10.6191 164.563 10.8418C165.512 11.6621 166.321 12.459 166.989 13.2324C167.141 13.4082 167.264 13.5605 167.358 13.6895C167.463 13.8066 167.516 13.9414 167.516 14.0938C167.516 14.2461 167.463 14.3809 167.358 14.498C167.264 14.6152 167.135 14.7734 166.971 14.9727C166.655 15.3359 166.286 15.7285 165.864 16.1504C165.442 16.5605 165.008 16.9531 164.563 17.3281C164.399 17.4688 164.27 17.5625 164.176 17.6094C164.082 17.6445 163.995 17.6621 163.913 17.6621C163.83 17.6621 163.743 17.6445 163.649 17.6094C163.567 17.5625 163.432 17.4688 163.245 17.3281C162.776 16.9531 162.336 16.5605 161.926 16.1504C161.516 15.7285 161.147 15.3242 160.819 14.9375C160.666 14.75 160.543 14.6035 160.45 14.498C160.356 14.3809 160.309 14.2461 160.309 14.0938ZM166.672 37.0684C166.672 37.4199 166.596 37.666 166.444 37.8066C166.303 37.9355 166.057 38 165.705 38H162.084C161.733 38 161.481 37.9355 161.329 37.8066C161.188 37.666 161.118 37.4199 161.118 37.0684V20.9316C161.118 20.5801 161.188 20.3398 161.329 20.2109C161.481 20.0703 161.733 20 162.084 20H165.705C166.057 20 166.303 20.0703 166.444 20.2109C166.596 20.3398 166.672 20.5801 166.672 20.9316V37.0684ZM175.97 36.3652C175.326 35.3457 174.687 34.1738 174.054 32.8496C173.433 31.5137 172.865 30.166 172.349 28.8066C171.845 27.4355 171.441 26.1875 171.136 25.0625C170.832 23.9258 170.679 23.0527 170.679 22.4434C170.679 22.209 170.744 22.0156 170.873 21.8633C171.412 21.1953 172.179 20.498 173.175 19.7715C173.351 19.6543 173.509 19.5957 173.65 19.5957C173.802 19.5957 173.961 19.6543 174.125 19.7715C174.664 20.1582 175.115 20.5215 175.478 20.8613C175.853 21.2012 176.17 21.5352 176.427 21.8633C176.556 22.0156 176.621 22.2324 176.621 22.5137V22.4258C176.621 23.1875 176.756 24.1895 177.025 25.4316C177.306 26.6621 177.687 27.9629 178.168 29.334C178.648 30.7051 179.205 31.9648 179.838 33.1133H179.925C180.453 32.2461 180.922 31.3086 181.332 30.3008C181.742 29.293 182.088 28.2852 182.369 27.2773C182.65 26.2695 182.861 25.3438 183.002 24.5C183.154 23.6562 183.23 22.9707 183.23 22.4434V22.5137C183.23 22.2324 183.289 22.0156 183.406 21.8633C183.675 21.5352 183.992 21.2012 184.355 20.8613C184.718 20.5215 185.158 20.1582 185.674 19.7715C185.838 19.6543 185.99 19.5957 186.131 19.5957C186.295 19.5957 186.447 19.6543 186.588 19.7715C187.115 20.1582 187.56 20.5215 187.924 20.8613C188.287 21.2012 188.597 21.5352 188.855 21.8633C188.972 22.0156 189.031 22.2207 189.031 22.4785C189.019 23.1113 188.855 24.002 188.539 25.1504C188.222 26.2871 187.795 27.541 187.256 28.9121C186.728 30.2715 186.136 31.6133 185.48 32.9375C184.824 34.25 184.156 35.3926 183.476 36.3652C183.066 36.9629 182.697 37.3848 182.369 37.6309C182.041 37.877 181.472 38 180.664 38H178.8C177.957 38 177.371 37.8828 177.043 37.6484C176.726 37.4141 176.369 36.9863 175.97 36.3652ZM170.679 22.4258V22.4434C170.679 22.4668 170.679 22.4902 170.679 22.5137V22.4258ZM189.031 22.4434V22.5137V22.4785C189.031 22.4668 189.031 22.4551 189.031 22.4434ZM207.013 14.1816C207.657 15.084 208.313 16.25 208.981 17.6797C209.661 19.0977 210.317 20.6562 210.95 22.3555C211.583 24.0547 212.151 25.7949 212.655 27.5762C213.171 29.3457 213.593 31.0508 213.921 32.6914C214.249 34.332 214.437 35.791 214.483 37.0684C214.495 37.6895 214.214 38 213.64 38H209.386C208.835 38 208.548 37.7246 208.524 37.1738C208.478 35.8613 208.267 34.2676 207.892 32.3926H198.294C197.966 34.2207 197.778 35.8145 197.731 37.1738C197.708 37.7246 197.409 38 196.835 38H192.669C192.458 38 192.282 37.9414 192.142 37.8242C192.001 37.6953 191.937 37.4785 191.948 37.1738C192.007 35.873 192.194 34.3965 192.511 32.7441C192.839 31.0801 193.261 29.3574 193.776 27.5762C194.292 25.7949 194.866 24.0547 195.499 22.3555C196.132 20.6445 196.788 19.0801 197.468 17.6621C198.147 16.2441 198.81 15.084 199.454 14.1816C199.794 13.7012 200.151 13.3496 200.526 13.127C200.913 12.9043 201.388 12.793 201.95 12.793H204.481C205.056 12.793 205.536 12.9043 205.923 13.127C206.31 13.3496 206.673 13.7012 207.013 14.1816ZM203.04 18.3477C202.267 19.5781 201.558 21.0488 200.913 22.7598C200.269 24.4707 199.712 26.2285 199.243 28.0332H206.872C206.38 26.2285 205.812 24.4707 205.167 22.7598C204.522 21.0488 203.849 19.5781 203.145 18.3477H203.04ZM225.258 38.4395C223.699 38.4395 222.369 38.0586 221.268 37.2969C220.178 36.5234 219.346 35.4629 218.772 34.1152C218.209 32.7559 217.928 31.1914 217.928 29.4219C217.928 27.0898 218.338 25.2031 219.158 23.7617C219.99 22.3086 221.156 21.2422 222.656 20.5625C224.168 19.8828 225.949 19.543 228 19.543C228.703 19.543 229.283 19.5781 229.74 19.6484C230.209 19.7188 230.543 19.7832 230.742 19.8418V13.2852C230.742 13.0039 230.801 12.7871 230.918 12.6348C231.41 11.9902 232.131 11.293 233.08 10.543C233.244 10.4258 233.391 10.3672 233.52 10.3672C233.672 10.3672 233.819 10.4258 233.959 10.543C234.463 10.9297 234.885 11.293 235.225 11.6328C235.576 11.9727 235.875 12.3066 236.121 12.6348C236.239 12.7871 236.297 13.0039 236.297 13.2852V37.1914C236.297 37.4141 236.221 37.6074 236.069 37.7715C235.916 37.9238 235.723 38 235.489 38H232.869C232.682 38 232.512 37.9766 232.36 37.9297C232.219 37.8711 232.084 37.7656 231.955 37.6133L230.865 36.207H230.742C230.59 36.4414 230.315 36.7402 229.916 37.1035C229.53 37.4551 228.961 37.7656 228.211 38.0352C227.473 38.3047 226.489 38.4395 225.258 38.4395ZM226.963 33.9395C228.018 33.9395 228.844 33.7402 229.442 33.3418C230.051 32.9434 230.485 32.4395 230.742 31.8301V24.4648C230.555 24.3477 230.244 24.207 229.811 24.043C229.377 23.8789 228.768 23.7969 227.983 23.7969C226.53 23.7969 225.44 24.2715 224.713 25.2207C223.987 26.1699 223.623 27.4473 223.623 29.0527C223.623 30.7168 223.928 31.9473 224.537 32.7441C225.147 33.541 225.955 33.9395 226.963 33.9395ZM246.773 38.4395C245.519 38.4395 244.476 38.334 243.644 38.123C242.824 37.9121 242.162 37.6602 241.658 37.3672C241.166 37.0625 240.779 36.7871 240.498 36.541C240.287 36.3418 240.263 36.1191 240.427 35.873L242.22 33.2188C242.478 32.8438 242.771 32.8203 243.099 33.1484C243.439 33.4766 243.896 33.7988 244.47 34.1152C245.056 34.4199 245.783 34.5723 246.65 34.5723C247.423 34.5723 248.056 34.4434 248.548 34.1855C249.052 33.916 249.304 33.5293 249.304 33.0254C249.304 32.6738 249.193 32.3867 248.97 32.1641C248.748 31.9414 248.355 31.7129 247.793 31.4785C247.23 31.2441 246.445 30.9453 245.437 30.582C243.949 30.043 242.824 29.3926 242.062 28.6309C241.3 27.8691 240.919 26.7559 240.919 25.291C240.919 23.9434 241.289 22.8477 242.027 22.0039C242.777 21.1602 243.732 20.5449 244.892 20.1582C246.064 19.7598 247.283 19.5605 248.548 19.5605C250.154 19.5605 251.279 19.7129 251.923 20.0176C252.58 20.3105 253.001 20.5391 253.189 20.7031C253.365 20.8555 253.488 21.0312 253.558 21.2305C253.71 21.6875 253.828 22.291 253.91 23.041C253.957 23.4746 253.845 23.7617 253.576 23.9023C253.435 23.9844 253.212 24.0723 252.908 24.166C252.603 24.2598 252.298 24.3418 251.994 24.4121C251.689 24.4824 251.46 24.5176 251.308 24.5176C251.261 24.5176 251.209 24.5059 251.15 24.4824C251.103 24.4473 251.015 24.3711 250.886 24.2539C250.734 24.1016 250.47 23.9258 250.095 23.7266C249.732 23.5273 249.228 23.4277 248.584 23.4277C247.951 23.4277 247.418 23.5332 246.984 23.7441C246.562 23.9434 246.351 24.3008 246.351 24.8164C246.351 25.3789 246.621 25.8008 247.16 26.082C247.71 26.3633 248.613 26.7266 249.867 27.1719C250.851 27.5117 251.707 27.8867 252.433 28.2969C253.171 28.6953 253.74 29.2227 254.138 29.8789C254.537 30.5234 254.736 31.3965 254.736 32.498C254.736 33.9277 254.343 35.082 253.558 35.9609C252.785 36.8281 251.789 37.4609 250.57 37.8594C249.363 38.2461 248.097 38.4395 246.773 38.4395ZM284.283 27.9102C284.447 27.2773 284.623 26.6562 284.811 26.0469C285.01 25.4258 285.25 24.7344 285.531 23.9727C285.777 23.293 286.076 22.5137 286.428 21.6348C286.779 20.7441 287.149 19.8418 287.535 18.9277C287.934 18.0137 288.32 17.1641 288.695 16.3789C289.07 15.5937 289.41 14.9668 289.715 14.498C290.09 13.9238 290.494 13.4961 290.928 13.2148C291.373 12.9336 292.024 12.793 292.879 12.793H295.182C295.791 12.793 296.301 12.8867 296.711 13.0742C297.133 13.25 297.432 13.6777 297.608 14.3574C297.736 14.8613 297.859 15.5996 297.977 16.5723C298.094 17.5449 298.193 18.8926 298.275 20.6152C298.358 22.3379 298.422 24.5527 298.469 27.2598C298.516 29.9551 298.539 33.2891 298.539 37.2617C298.539 37.4727 298.469 37.6484 298.328 37.7891C298.188 37.9297 298.018 38 297.818 38H293.811C293.611 38 293.441 37.9297 293.301 37.7891C293.16 37.6484 293.09 37.4668 293.09 37.2441C293.09 34.1504 293.09 31.5254 293.09 29.3691C293.09 27.2129 293.084 25.4258 293.072 24.0078C293.061 22.5898 293.043 21.4648 293.02 20.6328C293.008 19.7891 292.984 19.1387 292.949 18.6816H292.844C292.223 20.1113 291.561 21.7051 290.858 23.4629C290.154 25.209 289.469 27.0137 288.801 28.877C288.133 30.7285 287.535 32.5391 287.008 34.3086C286.856 34.8359 286.662 35.2051 286.428 35.416C286.205 35.6152 285.69 35.7148 284.881 35.7148H282.859C282.168 35.7148 281.705 35.627 281.471 35.4512C281.248 35.2754 281.055 34.8945 280.891 34.3086C280.504 32.9727 280.076 31.5605 279.608 30.0723C279.139 28.584 278.652 27.125 278.149 25.6953C277.656 24.2539 277.176 22.9297 276.707 21.7227C276.25 20.5039 275.84 19.4902 275.477 18.6816H275.371C275.277 20.0645 275.195 21.7461 275.125 23.7266C275.055 25.707 274.996 27.8574 274.949 30.1777C274.914 32.498 274.891 34.8652 274.879 37.2793C274.879 37.4902 274.809 37.666 274.668 37.8066C274.527 37.9355 274.358 38 274.158 38H270.555C270.356 38 270.186 37.9297 270.045 37.7891C269.904 37.6484 269.834 37.4668 269.834 37.2441C269.846 30.998 269.969 26.0117 270.203 22.2852C270.449 18.5586 270.713 16.0625 270.994 14.7969C271.182 13.9648 271.51 13.4258 271.979 13.1797C272.459 12.9219 273.004 12.793 273.613 12.793H276.461C277.106 12.793 277.574 12.9102 277.867 13.1445C278.172 13.3672 278.541 13.8066 278.975 14.4629C279.233 14.8496 279.537 15.4297 279.889 16.2031C280.252 16.9766 280.627 17.8379 281.014 18.7871C281.4 19.7246 281.764 20.6562 282.104 21.582C282.455 22.4961 282.742 23.293 282.965 23.9727C283.199 24.6641 283.416 25.3379 283.615 25.9941C283.815 26.6387 283.99 27.2773 284.143 27.9102H284.283ZM309.068 38C307.861 38 306.941 37.8477 306.308 37.543C305.687 37.2383 305.265 36.7402 305.042 36.0488C304.831 35.3574 304.726 34.4375 304.726 33.2891V17.5039C304.726 16.332 304.831 15.4063 305.042 14.7266C305.265 14.0352 305.687 13.543 306.308 13.25C306.941 12.9453 307.861 12.793 309.068 12.793H314.464C316.984 12.793 319.187 13.168 321.074 13.918C322.972 14.668 324.449 15.9395 325.503 17.7324C326.558 19.5137 327.085 21.9629 327.085 25.0801C327.085 28.1973 326.558 30.7051 325.503 32.6035C324.449 34.4902 322.972 35.8613 321.074 36.7168C319.187 37.5723 316.984 38 314.464 38H309.068ZM312.408 17.416C311.634 17.416 311.107 17.5801 310.826 17.9082C310.544 18.2363 310.404 18.7988 310.404 19.5957V31.1973C310.404 31.9824 310.544 32.5449 310.826 32.8848C311.107 33.2246 311.634 33.3945 312.408 33.3945H313.216C315.724 33.3945 317.663 32.7793 319.035 31.5488C320.417 30.3184 321.109 28.1855 321.109 25.1504C321.109 23.123 320.792 21.5527 320.16 20.4395C319.538 19.3145 318.636 18.5293 317.453 18.084C316.269 17.6387 314.845 17.416 313.181 17.416H312.408Z" fill="white"/>
<path d="M75.25 57L80.5417 44.0833H80.5695L85.8611 57H84.1806L82.7083 53.3056H78.3333L76.8472 57H75.25ZM78.8611 51.9722H82.1806L81.1945 49.5C81.0741 49.1852 80.9583 48.875 80.8472 48.5694C80.7361 48.2639 80.625 47.8981 80.5139 47.4722C80.4028 47.8981 80.2963 48.2639 80.1945 48.5694C80.0926 48.8657 79.9769 49.1759 79.8472 49.5L78.8611 51.9722ZM95.0504 57.25C94.143 57.25 93.2957 57.0833 92.5087 56.75C91.7217 56.4074 91.0272 55.9398 90.4254 55.3472C89.8328 54.7454 89.3698 54.0556 89.0365 53.2778C88.7031 52.4907 88.5365 51.6481 88.5365 50.75C88.5365 49.8519 88.7031 49.0139 89.0365 48.2361C89.3791 47.4491 89.8467 46.7593 90.4393 46.1667C91.0411 45.5648 91.7355 45.0972 92.5226 44.7639C93.3096 44.4213 94.1568 44.25 95.0643 44.25C95.9531 44.25 96.7865 44.4167 97.5643 44.75C98.342 45.0741 99.0272 45.5231 99.6198 46.0972L99.1615 48.0139C98.7355 47.3287 98.1615 46.7824 97.4393 46.375C96.7263 45.9583 95.9346 45.75 95.0643 45.75C94.3791 45.75 93.7402 45.8796 93.1476 46.1389C92.555 46.3981 92.0365 46.7593 91.592 47.2222C91.1476 47.6759 90.8004 48.2037 90.5504 48.8056C90.3004 49.4074 90.1754 50.0556 90.1754 50.75C90.1754 51.4259 90.2957 52.0694 90.5365 52.6806C90.7865 53.2824 91.1337 53.8148 91.5781 54.2778C92.0226 54.7315 92.5365 55.0926 93.1198 55.3611C93.7124 55.6204 94.3559 55.75 95.0504 55.75C95.5689 55.75 96.0596 55.6898 96.5226 55.5694C96.9948 55.4398 97.4254 55.2593 97.8143 55.0278V51.75H94.3698V50.3333H99.342V55.8333C98.7772 56.3056 98.1198 56.662 97.3698 56.9028C96.6291 57.1343 95.8559 57.25 95.0504 57.25ZM104.5 57V44.5H110.667V45.9167H106.083V48.5833H109.694V50H106.083V55.5833H110.667V57H104.5ZM125.472 57.4167L116.75 48.0417V57H115.25V44.0833H115.278L124 53.4583V44.5H125.5V57.4167H125.472ZM133.25 57V45.9167H129.917V44.5H138.167V45.9167H134.833V57H133.25ZM142.757 57V44.5H144.34V57H142.757ZM150 57V44.5H156.167V45.9167H151.583V48.5833H155.194V50H151.583V55.5833H156.167V57H150ZM166.91 57V44.5H171.007C172.137 44.5 173.119 44.6852 173.952 45.0556C174.794 45.4259 175.489 45.9167 176.035 46.5278C176.581 47.1389 176.989 47.8148 177.257 48.5556C177.526 49.287 177.66 50.0185 177.66 50.75C177.66 51.4815 177.526 52.2176 177.257 52.9583C176.989 53.6898 176.581 54.3611 176.035 54.9722C175.489 55.5833 174.794 56.0741 173.952 56.4444C173.119 56.8148 172.137 57 171.007 57H166.91ZM168.494 55.5833H170.841C171.804 55.5833 172.614 55.4352 173.271 55.1389C173.929 54.8333 174.461 54.4398 174.869 53.9583C175.276 53.4676 175.568 52.9398 175.744 52.375C175.929 51.8102 176.021 51.2685 176.021 50.75C176.021 50.2315 175.929 49.6898 175.744 49.125C175.568 48.5602 175.276 48.037 174.869 47.5556C174.461 47.0648 173.929 46.6713 173.271 46.375C172.614 46.0694 171.804 45.9167 170.841 45.9167H168.494V55.5833ZM182.25 57V44.5H188.417V45.9167H183.833V48.5833H187.444V50H183.833V55.5833H188.417V57H182.25ZM199.16 57V44.5H202.257C203.081 44.5 203.776 44.625 204.341 44.875C204.915 45.125 205.378 45.4537 205.73 45.8611C206.081 46.2593 206.336 46.6944 206.494 47.1667C206.66 47.6389 206.744 48.1019 206.744 48.5556C206.744 49 206.665 49.4583 206.507 49.9306C206.35 50.4028 206.095 50.8426 205.744 51.25C205.392 51.6574 204.929 51.9861 204.355 52.2361C203.781 52.4861 203.081 52.6111 202.257 52.6111H200.744V57H199.16ZM200.744 51.1944H202.174C202.924 51.1944 203.517 51.0648 203.952 50.8056C204.387 50.537 204.697 50.2037 204.882 49.8056C205.068 49.3981 205.16 48.9815 205.16 48.5556C205.16 48.1481 205.068 47.7407 204.882 47.3333C204.706 46.9259 204.401 46.588 203.966 46.3194C203.54 46.0509 202.943 45.9167 202.174 45.9167H200.744V51.1944ZM214.966 57.1667C214.179 57.1667 213.48 56.9954 212.869 56.6528C212.257 56.3009 211.776 55.8194 211.424 55.2083C211.081 54.588 210.91 53.875 210.91 53.0694V44.5H212.494V53.0139C212.494 53.5602 212.6 54.0417 212.813 54.4583C213.035 54.8657 213.331 55.1852 213.702 55.4167C214.081 55.6389 214.512 55.75 214.994 55.75C215.475 55.75 215.901 55.6389 216.271 55.4167C216.651 55.1852 216.947 54.8704 217.16 54.4722C217.382 54.0648 217.494 53.5972 217.494 53.0694V44.5H219.021V53.0139C219.021 53.8287 218.845 54.5509 218.494 55.1806C218.151 55.8009 217.674 56.287 217.063 56.6389C216.461 56.9907 215.762 57.1667 214.966 57.1667ZM224.273 57V44.5H227.773C228.57 44.5 229.199 44.6574 229.662 44.9722C230.135 45.287 230.473 45.6713 230.676 46.125C230.88 46.5694 230.982 46.9907 230.982 47.3889C230.982 47.8426 230.875 48.2593 230.662 48.6389C230.459 49.0093 230.181 49.3148 229.829 49.5556C230.283 49.7593 230.676 50.0324 231.01 50.375C231.352 50.7176 231.621 51.1157 231.815 51.5694C232.01 52.0139 232.107 52.4954 232.107 53.0139C232.107 53.5139 232.014 54 231.829 54.4722C231.644 54.9444 231.366 55.3704 230.996 55.75C230.635 56.1296 230.185 56.4352 229.648 56.6667C229.111 56.8889 228.486 57 227.773 57H224.273ZM225.857 55.5833H227.662C228.348 55.5833 228.898 55.4491 229.315 55.1806C229.732 54.912 230.037 54.5741 230.232 54.1667C230.426 53.7593 230.523 53.3565 230.523 52.9583C230.523 52.5694 230.431 52.1713 230.246 51.7639C230.06 51.3565 229.76 51.0185 229.343 50.75C228.926 50.4722 228.366 50.3333 227.662 50.3333H225.857V55.5833ZM225.857 49H227.648C228.019 49 228.338 48.9444 228.607 48.8333C228.885 48.713 229.098 48.537 229.246 48.3056C229.403 48.0741 229.482 47.7963 229.482 47.4722C229.482 47.1296 229.403 46.8472 229.246 46.625C229.098 46.3935 228.889 46.2176 228.621 46.0972C228.361 45.9769 228.056 45.9167 227.704 45.9167H225.857V49ZM236.684 57V44.5H238.267V55.5833H242.6V57H236.684ZM247.19 57V44.5H248.773V57H247.19ZM260.045 57.25C259.147 57.25 258.299 57.0833 257.503 56.75C256.716 56.4074 256.022 55.9398 255.42 55.3472C254.827 54.7546 254.36 54.0648 254.017 53.2778C253.684 52.4907 253.517 51.6481 253.517 50.75C253.517 49.8519 253.684 49.0093 254.017 48.2222C254.36 47.4352 254.827 46.7454 255.42 46.1528C256.022 45.5602 256.716 45.0972 257.503 44.7639C258.299 44.4213 259.147 44.25 260.045 44.25C260.934 44.25 261.767 44.4167 262.545 44.75C263.322 45.0741 264.008 45.5231 264.6 46.0972L264.142 48.0139C263.716 47.3287 263.142 46.7824 262.42 46.375C261.707 45.9583 260.915 45.75 260.045 45.75C259.36 45.75 258.721 45.8796 258.128 46.1389C257.535 46.3981 257.017 46.7593 256.572 47.2222C256.128 47.6759 255.781 48.2037 255.531 48.8056C255.281 49.4074 255.156 50.0556 255.156 50.75C255.156 51.4444 255.281 52.0926 255.531 52.6944C255.781 53.2963 256.128 53.8287 256.572 54.2917C257.017 54.7454 257.535 55.1019 258.128 55.3611C258.721 55.6204 259.36 55.75 260.045 55.75C260.924 55.75 261.721 55.5417 262.434 55.125C263.147 54.7083 263.716 54.162 264.142 53.4861L264.6 55.4028C264.008 55.9676 263.322 56.4167 262.545 56.75C261.767 57.0833 260.934 57.25 260.045 57.25ZM269.1 57V44.5H270.684V57H269.1ZM278.594 57V45.9167H275.26V44.5H283.51V45.9167H280.177V57H278.594ZM284.773 57L290.065 44.0833H290.093L295.385 57H293.704L292.232 53.3056H287.857L286.371 57H284.773ZM288.385 51.9722H291.704L290.718 49.5C290.598 49.1852 290.482 48.875 290.371 48.5694C290.26 48.2639 290.148 47.8981 290.037 47.4722C289.926 47.8981 289.82 48.2639 289.718 48.5694C289.616 48.8657 289.5 49.1759 289.371 49.5L288.385 51.9722ZM299.977 57V45.9167H296.643V44.5H304.893V45.9167H301.56V57H299.977ZM309.316 57V44.5H315.483V45.9167H310.9V48.5833H314.511V50H310.9V55.5833H315.483V57H309.316Z" fill="#B9B9B9"/>
</g>
<defs>
<clipPath id="clip0_13_40">
<rect width="329" height="71" fill="white"/>
</clipPath>
</defs>
</svg>
