<svg width="54" height="57" viewBox="0 0 54 57" fill="none" xmlns="http://www.w3.org/2000/svg">
<path d="M39.9734 27.713L51.7529 16.2418C52.1042 15.8997 52.319 15.4417 52.3253 14.9513C52.3394 13.8519 52.2684 11.8067 51.6304 10.5076C50.9862 9.19585 49.3873 7.87787 48.4152 7.15911C47.9813 6.83833 47.3797 6.95677 47.0647 7.39485C46.1872 8.61509 44.4325 10.973 42.9481 12.4587C41.0253 14.3832 37.7258 16.6761 36.6329 17.4177C36.4006 17.5753 36.1162 17.6232 35.8435 17.5565C34.8142 17.3047 32.1385 16.6662 30.2586 16.3611C26.2514 15.7107 23.58 17.6618 23.58 17.6618C23.58 17.6618 17.5691 20.9138 16.9013 26.7673C16.5999 29.4092 17.716 32.3013 18.5972 34.1015C18.9614 34.8454 20.0302 34.7695 20.427 34.0424C21.3456 32.3593 23.0279 29.9447 25.5836 28.7185C29.6215 26.781 37.1174 27.7001 39.1111 27.991C39.4275 28.0372 39.7443 27.9361 39.9734 27.713Z" fill="#62A7C0"/>
<path d="M16.9013 26.7673C16.5999 29.4092 17.716 32.3013 18.5972 34.1015C18.9614 34.8454 20.0302 34.7695 20.427 34.0425C21.3456 32.3593 23.0279 29.9447 25.5836 28.7185C30.2687 26.4705 39.6088 28.0681 39.6088 28.0681L38.1465 16.3611C37.5059 16.8202 36.9684 17.19 36.635 17.4162C36.4027 17.5739 36.1162 17.6232 35.8435 17.5565C34.8142 17.3047 32.1385 16.6662 30.2586 16.3611C26.2514 15.7107 23.58 17.6618 23.58 17.6618C23.58 17.6618 17.5691 20.9138 16.9013 26.7673Z" fill="#426F7F"/>
<path d="M16.9013 26.7673C16.5999 29.4092 17.716 32.3013 18.5972 34.1015C18.9614 34.8455 20.0306 34.7687 20.4274 34.0416C20.8466 33.2736 21.4248 32.3534 22.1724 31.4633L20.842 19.6879C19.1599 21.2301 17.26 23.6235 16.9013 26.7673Z" fill="#335562"/>
<path d="M10.6558 49.6401C-1.12941 39.1643 0.834794 24.7601 0.834794 24.7601C0.834794 24.7601 3.45374 7.40861 19.1674 2.17074C29.8197 -1.37998 40.5198 2.3875 44.1018 3.89663C44.7289 4.16085 44.862 4.95809 44.3808 5.43929L37.2581 12.562C37.003 12.8171 36.6358 12.9169 36.2849 12.8335C34.1214 12.3194 26.1831 10.7259 21.1316 13.6296C12.6201 18.5221 12.6201 27.379 12.6201 27.379C12.6201 27.379 11.8692 35.2359 19.1674 41.1285C25.3364 46.1094 33.707 44.5411 36.1496 43.9365C36.5681 43.8329 37.0157 43.9834 37.2681 44.3328L43.9361 53.5654C44.4587 54.2891 43.8325 55.3614 42.9405 55.3263C41.5799 55.2727 39.7098 55.2872 37.5 55.5327C25.7148 56.8422 17.6218 55.832 10.6558 49.6401Z" fill="#62A7C0"/>
<path d="M37.5001 55.5327C25.7148 56.8422 17.6218 55.832 10.6558 49.6401L13.3035 32.5578C14.0936 35.1718 15.746 38.366 19.1675 41.1285C25.3364 46.1094 33.707 44.5411 36.1497 43.9365C36.5681 43.8329 37.0157 43.9834 37.2681 44.3328L43.9361 53.5654C44.4587 54.2891 43.8325 55.3614 42.9405 55.3263C41.5799 55.2727 39.7098 55.2872 37.5001 55.5327Z" fill="#518CA2"/>
<path d="M42.9405 55.3263C41.5799 55.2727 39.7098 55.2872 37.5 55.5327C29.4685 56.4251 23.1518 56.2402 17.7379 54.0721L16.4076 38.3906C17.1677 39.3252 18.0778 40.2487 19.1674 41.1285C25.3364 46.1094 33.707 44.5411 36.1497 43.9365C36.5681 43.8329 37.0157 43.9834 37.2681 44.3328L43.9361 53.5654C44.4587 54.2891 43.8325 55.3614 42.9405 55.3263Z" fill="#426F7F"/>
<path d="M42.9405 55.3263C41.5799 55.2727 39.7098 55.2872 37.5 55.5327C33.6531 55.9601 30.1996 56.1404 27.0503 55.974L24.0609 43.7474C29.1398 45.3885 34.3186 44.3899 36.1514 43.9361C36.5698 43.8324 37.0157 43.9834 37.2681 44.3328L43.9361 53.5655C44.4587 54.2891 43.8325 55.3614 42.9405 55.3263Z" fill="#335562"/>
<path d="M43.7552 35.8404L39.522 41.207C39.2309 41.5761 39.2362 42.098 39.5346 42.4612L45.1086 49.2451C45.4735 49.6891 46.1366 49.735 46.5591 49.3454L51.6311 44.669C52.4857 43.8811 52.4909 42.533 51.6423 41.7386L45.2238 35.7297C44.7963 35.3295 44.1179 35.3806 43.7552 35.8404Z" fill="#62A7C0"/>
<path d="M45.0358 48.6947L43.7495 36.7963C43.6496 35.8721 44.7545 35.3236 45.4304 35.9618L51.44 41.6376L51.6459 41.8435C52.4734 42.671 52.3762 44.0396 51.44 44.7417L47.4489 48.7327L46.6547 49.3681C46.0384 49.8611 45.1207 49.4794 45.0358 48.6947Z" fill="#518CA2"/>
</svg>
