<svg width="41" height="41" viewBox="0 0 41 41" fill="none" xmlns="http://www.w3.org/2000/svg">
<path d="M39.088 32.2914C39.088 32.9636 38.9387 33.6545 38.6212 34.3267C38.3038 34.9989 37.893 35.6338 37.3515 36.2313C36.4365 37.2397 35.4282 37.9679 34.2891 38.4347C33.1687 38.9016 31.955 39.1443 30.6479 39.1443C28.7433 39.1443 26.7079 38.6962 24.5606 37.7812C22.4132 36.8662 20.2658 35.6338 18.1371 34.084C15.9897 32.5154 13.9544 30.7789 12.0124 28.8556C10.0891 26.9136 8.35251 24.8782 6.80267 22.7495C5.27149 20.6208 4.03908 18.4921 3.14279 16.3821C2.24649 14.2534 1.79834 12.218 1.79834 10.2761C1.79834 9.00631 2.02241 7.79257 2.47056 6.6722C2.91871 5.53316 3.62828 4.48748 4.61794 3.55383C5.813 2.37744 7.12011 1.79858 8.5019 1.79858C9.02474 1.79858 9.54758 1.91062 10.0144 2.1347C10.4999 2.35877 10.9294 2.69488 11.2655 3.18038L15.5976 9.2864C15.9337 9.75322 16.1764 10.1827 16.3445 10.5935C16.5126 10.9856 16.6059 11.3778 16.6059 11.7325C16.6059 12.1807 16.4752 12.6288 16.2138 13.0583C15.971 13.4878 15.6163 13.9359 15.1681 14.3841L13.749 15.8592C13.5436 16.0646 13.4502 16.3074 13.4502 16.6062C13.4502 16.7555 13.4689 16.8863 13.5062 17.0356C13.5622 17.185 13.6183 17.2971 13.6556 17.4091C13.9917 18.0253 14.5706 18.8282 15.3922 19.7992C16.2325 20.7702 17.1288 21.7599 18.0997 22.7495C19.1081 23.7392 20.0791 24.6542 21.0687 25.4944C22.0397 26.316 22.8427 26.8762 23.4775 27.2123C23.5709 27.2497 23.6829 27.3057 23.8136 27.3617C23.963 27.4177 24.1124 27.4364 24.2805 27.4364C24.5979 27.4364 24.8406 27.3244 25.046 27.119L26.4652 25.7185C26.932 25.2517 27.3802 24.8969 27.8096 24.6728C28.2391 24.4114 28.6686 24.2807 29.1354 24.2807C29.4902 24.2807 29.8636 24.3554 30.2745 24.5235C30.6853 24.6915 31.1147 24.9343 31.5816 25.2517L37.7623 29.6398C38.2478 29.9759 38.5839 30.3681 38.7893 30.8349C38.976 31.3017 39.088 31.7685 39.088 32.2914Z" stroke="black" stroke-width="1.2" stroke-miterlimit="10"/>
<path d="M32.6092 14.8696C32.6092 13.7492 31.7316 12.0313 30.4245 10.6309C29.2294 9.34244 27.6423 8.33411 26.0737 8.33411" stroke="black" stroke-width="1.2" stroke-linecap="round" stroke-linejoin="round"/>
<path d="M39.1447 14.8696C39.1447 7.64319 33.3001 1.79858 26.0737 1.79858" stroke="black" stroke-width="1.2" stroke-linecap="round" stroke-linejoin="round"/>
</svg>
