<svg width="16" height="16" viewBox="0 0 16 16" fill="none" xmlns="http://www.w3.org/2000/svg">
<path d="M15.254 12.6015C15.254 12.8638 15.1957 13.1334 15.0718 13.3958C14.9479 13.6581 14.7876 13.9059 14.5763 14.139C14.2192 14.5325 13.8257 14.8167 13.3812 14.9989C12.944 15.1811 12.4704 15.2758 11.9603 15.2758C11.217 15.2758 10.4227 15.1009 9.58472 14.7439C8.74672 14.3868 7.90872 13.9059 7.078 13.301C6.24 12.6889 5.44572 12.0112 4.68788 11.2607C3.93732 10.5028 3.25963 9.70856 2.65481 8.87785C2.05728 8.04713 1.57634 7.21642 1.22657 6.39299C0.876792 5.56228 0.701904 4.768 0.701904 4.01015C0.701904 3.51464 0.789348 3.04098 0.964235 2.60377C1.13912 2.15926 1.41603 1.75119 1.80224 1.38684C2.2686 0.927762 2.77869 0.701866 3.31793 0.701866C3.52196 0.701866 3.726 0.745588 3.90817 0.833032C4.09763 0.920475 4.26523 1.05164 4.3964 1.2411L6.08698 3.62394C6.21814 3.80612 6.31287 3.97372 6.37845 4.13403C6.44404 4.28706 6.48047 4.44008 6.48047 4.57853C6.48047 4.75342 6.42946 4.92831 6.32745 5.09591C6.23271 5.26351 6.09426 5.4384 5.91937 5.61328L5.36556 6.18895C5.28541 6.26911 5.24897 6.36384 5.24897 6.48043C5.24897 6.53873 5.25626 6.58974 5.27083 6.64803C5.2927 6.70633 5.31456 6.75005 5.32913 6.79377C5.4603 7.03424 5.68619 7.34758 6.00682 7.7265C6.33473 8.10543 6.68451 8.49164 7.06343 8.87785C7.45693 9.26406 7.83585 9.62112 8.22206 9.94903C8.60098 10.2697 8.91432 10.4883 9.16208 10.6194C9.19851 10.634 9.24223 10.6559 9.29324 10.6777C9.35154 10.6996 9.40983 10.7069 9.47542 10.7069C9.59929 10.7069 9.69403 10.6632 9.77418 10.583L10.328 10.0365C10.5102 9.8543 10.6851 9.71585 10.8527 9.6284C11.0203 9.52639 11.1879 9.47538 11.37 9.47538C11.5085 9.47538 11.6542 9.50453 11.8145 9.57011C11.9748 9.63569 12.1424 9.73042 12.3246 9.8543L14.7366 11.5667C14.9261 11.6979 15.0572 11.8509 15.1374 12.0331C15.2103 12.2153 15.254 12.3975 15.254 12.6015Z" stroke="white" stroke-width="1.2" stroke-miterlimit="10"/>
<path d="M12.7255 5.80277C12.7255 5.36556 12.383 4.69515 11.8729 4.14863C11.4065 3.64583 10.7872 3.25233 10.175 3.25233" stroke="white" stroke-width="1.2" stroke-linecap="round" stroke-linejoin="round"/>
<path d="M15.2759 5.80275C15.2759 2.98269 12.9951 0.701866 10.175 0.701866" stroke="white" stroke-width="1.2" stroke-linecap="round" stroke-linejoin="round"/>
</svg>
