<svg width="22" height="22" viewBox="0 0 22 22" fill="none" xmlns="http://www.w3.org/2000/svg">
<g clip-path="url(#clip0_22_551)">
<path d="M21.5403 3.44226C21.2873 2.08731 20.5418 1.02019 19.5953 0.658052C17.8796 0 11 0 11 0C11 0 4.12044 0 2.40474 0.658052C1.45821 1.02025 0.71273 2.08731 0.459711 3.44226C0 5.89818 0 11.0222 0 11.0222C0 11.0222 0 16.1463 0.459711 18.6022C0.71273 19.9572 1.45821 20.9798 2.40474 21.3419C4.12044 22 11 22 11 22C11 22 17.8796 22 19.5953 21.3419C20.5418 20.9798 21.2873 19.9572 21.5403 18.6022C22 16.1463 22 11.0222 22 11.0222C22 11.0222 22 5.89818 21.5403 3.44226ZM8.74998 15.6745V6.36997L14.5 11.0223L8.74998 15.6745Z" fill="white"/>
</g>
<defs>
<clipPath id="clip0_22_551">
<rect width="22" height="22" fill="white"/>
</clipPath>
</defs>
</svg>
